<svg xmlns="http://www.w3.org/2000/svg" xmlns:xlink="http://www.w3.org/1999/xlink" width="500" zoomAndPan="magnify" viewBox="0 0 375 374.999991" height="500" preserveAspectRatio="xMidYMid meet" version="1.0"><defs><g/><clipPath id="2abda57d18"><path d="M 154.257812 112.746094 L 219.09375 112.746094 L 219.09375 203.207031 L 154.257812 203.207031 Z M 154.257812 112.746094 " clip-rule="nonzero"/></clipPath><clipPath id="1310df5186"><path d="M 198 102.40625 L 205 102.40625 L 205 109 L 198 109 Z M 198 102.40625 " clip-rule="nonzero"/></clipPath><clipPath id="13a901bff1"><path d="M 217.527344 107.035156 L 223.078125 107.035156 L 223.078125 112.746094 L 217.527344 112.746094 Z M 217.527344 107.035156 " clip-rule="nonzero"/></clipPath></defs><g fill="#4e8ef7" fill-opacity="1"><g transform="translate(42.160828, 258.750028)"><g><path d="M 36.5 -16.015625 C 36.5 -15.941406 36.4375 -15.015625 36.3125 -13.234375 L 12.9375 -13.234375 C 13.414062 -11.566406 14.335938 -10.289062 15.703125 -9.40625 C 17.066406 -8.519531 18.773438 -8.078125 20.828125 -8.078125 C 22.367188 -8.078125 23.703125 -8.289062 24.828125 -8.71875 C 25.960938 -9.15625 27.101562 -9.867188 28.25 -10.859375 L 34.1875 -4.6875 C 31.0625 -1.207031 26.488281 0.53125 20.46875 0.53125 C 16.71875 0.53125 13.414062 -0.175781 10.5625 -1.59375 C 7.71875 -3.019531 5.515625 -5 3.953125 -7.53125 C 2.390625 -10.0625 1.609375 -12.929688 1.609375 -16.140625 C 1.609375 -19.304688 2.367188 -22.144531 3.890625 -24.65625 C 5.410156 -27.164062 7.515625 -29.132812 10.203125 -30.5625 C 12.898438 -31.988281 15.925781 -32.703125 19.28125 -32.703125 C 22.488281 -32.703125 25.394531 -32.035156 28 -30.703125 C 30.613281 -29.378906 32.679688 -27.460938 34.203125 -24.953125 C 35.734375 -22.441406 36.5 -19.460938 36.5 -16.015625 Z M 19.34375 -24.6875 C 17.601562 -24.6875 16.148438 -24.191406 14.984375 -23.203125 C 13.816406 -22.210938 13.078125 -20.867188 12.765625 -19.171875 L 25.9375 -19.171875 C 25.613281 -20.867188 24.867188 -22.210938 23.703125 -23.203125 C 22.535156 -24.191406 21.082031 -24.6875 19.34375 -24.6875 Z M 19.34375 -24.6875 "/></g></g></g><g fill="#4e8ef7" fill-opacity="1"><g transform="translate(74.202814, 258.750028)"><g><path d="M 3.625 -44.03125 L 14.890625 -44.03125 L 14.890625 0 L 3.625 0 Z M 3.625 -44.03125 "/></g></g></g><g fill="#4e8ef7" fill-opacity="1"><g transform="translate(86.722919, 258.750028)"><g><path d="M 36.5 -16.015625 C 36.5 -15.941406 36.4375 -15.015625 36.3125 -13.234375 L 12.9375 -13.234375 C 13.414062 -11.566406 14.335938 -10.289062 15.703125 -9.40625 C 17.066406 -8.519531 18.773438 -8.078125 20.828125 -8.078125 C 22.367188 -8.078125 23.703125 -8.289062 24.828125 -8.71875 C 25.960938 -9.15625 27.101562 -9.867188 28.25 -10.859375 L 34.1875 -4.6875 C 31.0625 -1.207031 26.488281 0.53125 20.46875 0.53125 C 16.71875 0.53125 13.414062 -0.175781 10.5625 -1.59375 C 7.71875 -3.019531 5.515625 -5 3.953125 -7.53125 C 2.390625 -10.0625 1.609375 -12.929688 1.609375 -16.140625 C 1.609375 -19.304688 2.367188 -22.144531 3.890625 -24.65625 C 5.410156 -27.164062 7.515625 -29.132812 10.203125 -30.5625 C 12.898438 -31.988281 15.925781 -32.703125 19.28125 -32.703125 C 22.488281 -32.703125 25.394531 -32.035156 28 -30.703125 C 30.613281 -29.378906 32.679688 -27.460938 34.203125 -24.953125 C 35.734375 -22.441406 36.5 -19.460938 36.5 -16.015625 Z M 19.34375 -24.6875 C 17.601562 -24.6875 16.148438 -24.191406 14.984375 -23.203125 C 13.816406 -22.210938 13.078125 -20.867188 12.765625 -19.171875 L 25.9375 -19.171875 C 25.613281 -20.867188 24.867188 -22.210938 23.703125 -23.203125 C 22.535156 -24.191406 21.082031 -24.6875 19.34375 -24.6875 Z M 19.34375 -24.6875 "/></g></g></g><g fill="#4e8ef7" fill-opacity="1"><g transform="translate(118.764905, 258.750028)"><g><path d="M 37.5 -32.171875 L 24.21875 0 L 12.578125 0 L -0.65625 -32.171875 L 10.921875 -32.171875 L 18.640625 -12.515625 L 26.765625 -32.171875 Z M 37.5 -32.171875 "/></g></g></g><g fill="#4e8ef7" fill-opacity="1"><g transform="translate(149.501484, 258.750028)"><g><path d="M 17.328125 -32.703125 C 22.671875 -32.703125 26.742188 -31.484375 29.546875 -29.046875 C 32.359375 -26.617188 33.765625 -22.890625 33.765625 -17.859375 L 33.765625 0 L 23.265625 0 L 23.265625 -4.15625 C 21.640625 -1.03125 18.472656 0.53125 13.765625 0.53125 C 11.273438 0.53125 9.117188 0.0976562 7.296875 -0.765625 C 5.472656 -1.640625 4.097656 -2.816406 3.171875 -4.296875 C 2.242188 -5.785156 1.78125 -7.476562 1.78125 -9.375 C 1.78125 -12.425781 2.945312 -14.789062 5.28125 -16.46875 C 7.613281 -18.144531 11.210938 -18.984375 16.078125 -18.984375 L 22.484375 -18.984375 C 22.285156 -22.390625 20.015625 -24.09375 15.671875 -24.09375 C 14.128906 -24.09375 12.566406 -23.84375 10.984375 -23.34375 C 9.398438 -22.851562 8.050781 -22.171875 6.9375 -21.296875 L 3.140625 -28.953125 C 4.921875 -30.140625 7.085938 -31.0625 9.640625 -31.71875 C 12.191406 -32.375 14.753906 -32.703125 17.328125 -32.703125 Z M 16.90625 -6.59375 C 18.21875 -6.59375 19.367188 -6.90625 20.359375 -7.53125 C 21.347656 -8.164062 22.054688 -9.097656 22.484375 -10.328125 L 22.484375 -13.109375 L 17.625 -13.109375 C 14.34375 -13.109375 12.703125 -12.019531 12.703125 -9.84375 C 12.703125 -8.863281 13.078125 -8.078125 13.828125 -7.484375 C 14.578125 -6.890625 15.601562 -6.59375 16.90625 -6.59375 Z M 16.90625 -6.59375 "/></g></g></g><g fill="#4e8ef7" fill-opacity="1"><g transform="translate(180.712762, 258.750028)"><g><path d="M 25.8125 -1.3125 C 24.863281 -0.71875 23.707031 -0.265625 22.34375 0.046875 C 20.976562 0.367188 19.523438 0.53125 17.984375 0.53125 C 13.785156 0.53125 10.554688 -0.492188 8.296875 -2.546875 C 6.046875 -4.609375 4.921875 -7.675781 4.921875 -11.75 L 4.921875 -22.546875 L 0.234375 -22.546875 L 0.234375 -30.984375 L 4.921875 -30.984375 L 4.921875 -39.34375 L 16.203125 -39.34375 L 16.203125 -30.984375 L 23.5625 -30.984375 L 23.5625 -22.546875 L 16.203125 -22.546875 L 16.203125 -11.875 C 16.203125 -10.71875 16.507812 -9.8125 17.125 -9.15625 C 17.738281 -8.507812 18.554688 -8.1875 19.578125 -8.1875 C 20.890625 -8.1875 22.039062 -8.523438 23.03125 -9.203125 Z M 25.8125 -1.3125 "/></g></g></g><g fill="#4e8ef7" fill-opacity="1"><g transform="translate(201.184028, 258.750028)"><g><path d="M 14.359375 -28.3125 C 15.503906 -29.769531 16.992188 -30.863281 18.828125 -31.59375 C 20.671875 -32.332031 22.78125 -32.703125 25.15625 -32.703125 L 25.15625 -22.546875 C 24.132812 -22.671875 23.285156 -22.734375 22.609375 -22.734375 C 20.191406 -22.734375 18.300781 -22.078125 16.9375 -20.765625 C 15.570312 -19.460938 14.890625 -17.46875 14.890625 -14.78125 L 14.890625 0 L 3.625 0 L 3.625 -32.171875 L 14.359375 -32.171875 Z M 14.359375 -28.3125 "/></g></g></g><g fill="#4e8ef7" fill-opacity="1"><g transform="translate(221.417948, 258.750028)"><g><path d="M 3.625 -44.03125 L 14.890625 -44.03125 L 14.890625 0 L 3.625 0 Z M 3.625 -44.03125 "/></g></g></g><g fill="#4e8ef7" fill-opacity="1"><g transform="translate(233.938059, 258.750028)"><g><path d="M 17.328125 -32.703125 C 22.671875 -32.703125 26.742188 -31.484375 29.546875 -29.046875 C 32.359375 -26.617188 33.765625 -22.890625 33.765625 -17.859375 L 33.765625 0 L 23.265625 0 L 23.265625 -4.15625 C 21.640625 -1.03125 18.472656 0.53125 13.765625 0.53125 C 11.273438 0.53125 9.117188 0.0976562 7.296875 -0.765625 C 5.472656 -1.640625 4.097656 -2.816406 3.171875 -4.296875 C 2.242188 -5.785156 1.78125 -7.476562 1.78125 -9.375 C 1.78125 -12.425781 2.945312 -14.789062 5.28125 -16.46875 C 7.613281 -18.144531 11.210938 -18.984375 16.078125 -18.984375 L 22.484375 -18.984375 C 22.285156 -22.390625 20.015625 -24.09375 15.671875 -24.09375 C 14.128906 -24.09375 12.566406 -23.84375 10.984375 -23.34375 C 9.398438 -22.851562 8.050781 -22.171875 6.9375 -21.296875 L 3.140625 -28.953125 C 4.921875 -30.140625 7.085938 -31.0625 9.640625 -31.71875 C 12.191406 -32.375 14.753906 -32.703125 17.328125 -32.703125 Z M 16.90625 -6.59375 C 18.21875 -6.59375 19.367188 -6.90625 20.359375 -7.53125 C 21.347656 -8.164062 22.054688 -9.097656 22.484375 -10.328125 L 22.484375 -13.109375 L 17.625 -13.109375 C 14.34375 -13.109375 12.703125 -12.019531 12.703125 -9.84375 C 12.703125 -8.863281 13.078125 -8.078125 13.828125 -7.484375 C 14.578125 -6.890625 15.601562 -6.59375 16.90625 -6.59375 Z M 16.90625 -6.59375 "/></g></g></g><g fill="#4e8ef7" fill-opacity="1"><g transform="translate(265.149336, 258.750028)"><g><path d="M 23.859375 -32.703125 C 26.785156 -32.703125 29.441406 -32.023438 31.828125 -30.671875 C 34.222656 -29.328125 36.125 -27.398438 37.53125 -24.890625 C 38.9375 -22.378906 39.640625 -19.460938 39.640625 -16.140625 C 39.640625 -12.816406 38.9375 -9.890625 37.53125 -7.359375 C 36.125 -4.828125 34.222656 -2.878906 31.828125 -1.515625 C 29.441406 -0.148438 26.785156 0.53125 23.859375 0.53125 C 19.617188 0.53125 16.453125 -0.710938 14.359375 -3.203125 L 14.359375 0 L 3.625 0 L 3.625 -44.03125 L 14.890625 -44.03125 L 14.890625 -29.375 C 17.066406 -31.59375 20.054688 -32.703125 23.859375 -32.703125 Z M 21.484375 -8.421875 C 23.460938 -8.421875 25.082031 -9.101562 26.34375 -10.46875 C 27.613281 -11.832031 28.25 -13.722656 28.25 -16.140625 C 28.25 -18.515625 27.613281 -20.375 26.34375 -21.71875 C 25.082031 -23.0625 23.460938 -23.734375 21.484375 -23.734375 C 19.503906 -23.734375 17.878906 -23.0625 16.609375 -21.71875 C 15.347656 -20.375 14.71875 -18.515625 14.71875 -16.140625 C 14.71875 -13.722656 15.347656 -11.832031 16.609375 -10.46875 C 17.878906 -9.101562 19.503906 -8.421875 21.484375 -8.421875 Z M 21.484375 -8.421875 "/></g></g></g><g fill="#4e8ef7" fill-opacity="1"><g transform="translate(300.33618, 258.750028)"><g><path d="M 15.3125 0.53125 C 12.625 0.53125 9.972656 0.222656 7.359375 -0.390625 C 4.742188 -1.003906 2.644531 -1.804688 1.0625 -2.796875 L 4.453125 -10.5 C 5.910156 -9.59375 7.648438 -8.867188 9.671875 -8.328125 C 11.691406 -7.796875 13.691406 -7.53125 15.671875 -7.53125 C 17.484375 -7.53125 18.773438 -7.71875 19.546875 -8.09375 C 20.328125 -8.476562 20.71875 -9.023438 20.71875 -9.734375 C 20.71875 -10.441406 20.25 -10.941406 19.3125 -11.234375 C 18.382812 -11.535156 16.910156 -11.828125 14.890625 -12.109375 C 12.316406 -12.421875 10.128906 -12.832031 8.328125 -13.34375 C 6.535156 -13.863281 4.984375 -14.816406 3.671875 -16.203125 C 2.367188 -17.585938 1.71875 -19.523438 1.71875 -22.015625 C 1.71875 -24.078125 2.332031 -25.90625 3.5625 -27.5 C 4.789062 -29.101562 6.582031 -30.367188 8.9375 -31.296875 C 11.289062 -32.234375 14.109375 -32.703125 17.390625 -32.703125 C 19.722656 -32.703125 22.035156 -32.460938 24.328125 -31.984375 C 26.617188 -31.515625 28.539062 -30.84375 30.09375 -29.96875 L 26.703125 -22.3125 C 23.859375 -23.894531 20.773438 -24.6875 17.453125 -24.6875 C 15.671875 -24.6875 14.363281 -24.476562 13.53125 -24.0625 C 12.695312 -23.644531 12.28125 -23.101562 12.28125 -22.4375 C 12.28125 -21.675781 12.734375 -21.148438 13.640625 -20.859375 C 14.554688 -20.566406 16.0625 -20.257812 18.15625 -19.9375 C 20.8125 -19.539062 23.007812 -19.082031 24.75 -18.5625 C 26.488281 -18.050781 28 -17.113281 29.28125 -15.75 C 30.570312 -14.382812 31.21875 -12.476562 31.21875 -10.03125 C 31.21875 -8.007812 30.601562 -6.195312 29.375 -4.59375 C 28.144531 -3 26.332031 -1.742188 23.9375 -0.828125 C 21.550781 0.078125 18.675781 0.53125 15.3125 0.53125 Z M 15.3125 0.53125 "/></g></g></g><path fill="#ffffff" d="M 207.265625 137.339844 L 214.074219 119.773438 L 199.609375 114.167969 L 192.570312 132.335938 C 191.015625 136.347656 187.332031 139.078125 183.058594 139.578125 C 171.371094 140.9375 160.859375 148.839844 156.855469 160.941406 C 151.824219 176.167969 159.277344 192.960938 173.949219 199.441406 C 190.441406 206.726562 209.492188 198.714844 215.933594 182.089844 C 220.429688 170.484375 217.554688 157.839844 209.589844 149.316406 C 206.582031 146.097656 205.675781 141.449219 207.265625 137.339844 " fill-opacity="1" fill-rule="nonzero"/><g clip-path="url(#2abda57d18)"><path fill="#4e8ef7" d="M 200.210938 115.527344 L 193.550781 132.714844 C 191.875 137.042969 187.902344 140.074219 183.183594 140.621094 C 171.492188 141.984375 161.554688 150.089844 157.855469 161.273438 C 153.019531 175.90625 160.273438 192.25 174.375 198.480469 C 182.050781 201.871094 190.539062 201.976562 198.265625 198.777344 C 206.003906 195.574219 211.925781 189.511719 214.949219 181.710938 C 219.128906 170.925781 216.722656 158.492188 208.820312 150.035156 C 205.558594 146.539062 204.5625 141.410156 206.285156 136.960938 L 212.710938 120.375 Z M 186.671875 203.207031 C 182.210938 203.207031 177.753906 202.273438 173.523438 200.402344 C 158.441406 193.742188 150.683594 176.261719 155.859375 160.609375 C 159.8125 148.652344 170.441406 139.988281 182.9375 138.53125 C 186.878906 138.074219 190.195312 135.554688 191.589844 131.953125 L 199.007812 112.808594 L 215.433594 119.171875 L 208.246094 137.722656 C 206.8125 141.421875 207.640625 145.691406 210.359375 148.597656 C 218.808594 157.644531 221.382812 170.9375 216.914062 182.46875 C 213.679688 190.8125 207.34375 197.296875 199.070312 200.71875 C 195.066406 202.378906 190.867188 203.207031 186.671875 203.207031 " fill-opacity="1" fill-rule="nonzero"/></g><path fill="#ffffff" d="M 217.363281 121.046875 L 196.316406 112.894531 C 195.96875 112.757812 195.574219 112.929688 195.441406 113.28125 L 193.628906 117.957031 C 193.492188 118.308594 193.667969 118.699219 194.015625 118.835938 L 215.0625 126.992188 C 215.410156 127.125 215.804688 126.953125 215.941406 126.601562 L 217.753906 121.925781 C 217.886719 121.578125 217.714844 121.183594 217.363281 121.046875 " fill-opacity="1" fill-rule="nonzero"/><path fill="#4e8ef7" d="M 197.503906 114.632812 C 197.210938 114.632812 196.917969 114.695312 196.644531 114.816406 C 196.121094 115.046875 195.722656 115.46875 195.515625 116 C 195.089844 117.097656 195.636719 118.335938 196.734375 118.761719 L 213.105469 125.101562 C 214.199219 125.527344 215.441406 124.980469 215.863281 123.882812 C 216.070312 123.351562 216.058594 122.773438 215.828125 122.25 C 215.597656 121.730469 215.179688 121.328125 214.644531 121.121094 L 198.277344 114.78125 C 198.027344 114.683594 197.765625 114.632812 197.503906 114.632812 Z M 213.871094 127.351562 C 213.363281 127.351562 212.84375 127.257812 212.34375 127.066406 L 195.972656 120.722656 C 193.796875 119.878906 192.707031 117.417969 193.554688 115.238281 C 193.960938 114.183594 194.757812 113.347656 195.792969 112.890625 C 196.828125 112.433594 197.980469 112.410156 199.035156 112.816406 L 215.40625 119.160156 C 216.460938 119.570312 217.296875 120.367188 217.753906 121.402344 C 218.210938 122.4375 218.234375 123.589844 217.828125 124.644531 C 217.175781 126.320312 215.570312 127.351562 213.871094 127.351562 " fill-opacity="1" fill-rule="nonzero"/><path fill="#fad12c" d="M 208.308594 159.640625 C 200.171875 157.269531 191.398438 163.507812 183.367188 160.746094 C 178.125 158.941406 174.292969 154.582031 172.035156 151.316406 C 168.527344 153.953125 165.6875 157.566406 163.984375 161.960938 C 159.128906 174.488281 165.351562 188.582031 177.878906 193.4375 C 190.40625 198.289062 204.5 192.070312 209.355469 179.539062 C 211.96875 172.796875 211.367188 165.605469 208.308594 159.640625 " fill-opacity="1" fill-rule="nonzero"/><g clip-path="url(#1310df5186)"><path fill="#4e8ef7" d="M 204.03125 106.585938 C 203.472656 108.027344 201.851562 108.742188 200.414062 108.183594 C 198.972656 107.625 198.257812 106.003906 198.816406 104.566406 C 199.375 103.125 200.996094 102.410156 202.433594 102.96875 C 203.875 103.527344 204.589844 105.144531 204.03125 106.585938 " fill-opacity="1" fill-rule="nonzero"/></g><path fill="#ffffff" d="M 182.683594 169.421875 C 182.125 170.859375 180.503906 171.574219 179.066406 171.015625 C 177.625 170.460938 176.910156 168.839844 177.46875 167.398438 C 178.027344 165.960938 179.644531 165.246094 181.085938 165.804688 C 182.523438 166.359375 183.238281 167.980469 182.683594 169.421875 " fill-opacity="1" fill-rule="nonzero"/><path fill="#ffffff" d="M 195.136719 165.945312 C 194.8125 166.777344 193.878906 167.191406 193.042969 166.867188 C 192.210938 166.546875 191.800781 165.609375 192.121094 164.777344 C 192.445312 163.945312 193.378906 163.53125 194.214844 163.855469 C 195.046875 164.175781 195.460938 165.113281 195.136719 165.945312 " fill-opacity="1" fill-rule="nonzero"/><path fill="#ffffff" d="M 182.585938 176.300781 C 182.265625 177.132812 181.328125 177.546875 180.496094 177.222656 C 179.664062 176.902344 179.25 175.964844 179.574219 175.132812 C 179.894531 174.300781 180.832031 173.886719 181.664062 174.210938 C 182.496094 174.53125 182.910156 175.46875 182.585938 176.300781 " fill-opacity="1" fill-rule="nonzero"/><path fill="#ffffff" d="M 174.878906 160.707031 C 174.554688 161.539062 173.621094 161.953125 172.789062 161.628906 C 171.953125 161.308594 171.542969 160.371094 171.863281 159.539062 C 172.1875 158.707031 173.121094 158.292969 173.957031 158.613281 C 174.789062 158.9375 175.203125 159.875 174.878906 160.707031 " fill-opacity="1" fill-rule="nonzero"/><g clip-path="url(#13a901bff1)"><path fill="#4e8ef7" d="M 222.980469 110.929688 C 222.421875 112.371094 220.804688 113.085938 219.363281 112.527344 C 217.921875 111.96875 217.207031 110.347656 217.765625 108.910156 C 218.324219 107.46875 219.945312 106.753906 221.382812 107.3125 C 222.824219 107.871094 223.539062 109.492188 222.980469 110.929688 " fill-opacity="1" fill-rule="nonzero"/></g><path fill="#4e8ef7" d="M 193.945312 110.167969 C 193.601562 111.046875 192.613281 111.484375 191.734375 111.144531 C 190.855469 110.800781 190.417969 109.8125 190.757812 108.933594 C 191.097656 108.054688 192.089844 107.617188 192.96875 107.957031 C 193.847656 108.296875 194.285156 109.289062 193.945312 110.167969 " fill-opacity="1" fill-rule="nonzero"/><path fill="#4e8ef7" d="M 210.160156 110.125 C 209.820312 111.007812 208.828125 111.441406 207.949219 111.101562 C 207.070312 110.761719 206.632812 109.773438 206.972656 108.890625 C 207.3125 108.011719 208.304688 107.574219 209.183594 107.917969 C 210.0625 108.257812 210.5 109.246094 210.160156 110.125 " fill-opacity="1" fill-rule="nonzero"/><path fill="#ffffff" d="M 191.535156 189.121094 C 191.183594 189.121094 190.867188 188.886719 190.773438 188.535156 C 190.660156 188.113281 190.910156 187.679688 191.332031 187.570312 C 195.5 186.460938 199.28125 184.242188 202.261719 181.148438 C 202.5625 180.835938 203.0625 180.828125 203.378906 181.128906 C 203.691406 181.433594 203.699219 181.933594 203.398438 182.246094 C 200.214844 185.542969 196.183594 187.914062 191.738281 189.09375 C 191.671875 189.113281 191.601562 189.121094 191.535156 189.121094 " fill-opacity="1" fill-rule="nonzero"/><path fill="#ffffff" d="M 185.304688 189.9375 C 183.933594 189.9375 182.558594 189.824219 181.207031 189.597656 C 180.777344 189.527344 180.484375 189.121094 180.558594 188.691406 C 180.628906 188.261719 181.035156 187.96875 181.464844 188.042969 C 183.066406 188.308594 184.703125 188.40625 186.328125 188.335938 C 186.773438 188.320312 187.132812 188.65625 187.152344 189.089844 C 187.171875 189.523438 186.832031 189.894531 186.398438 189.914062 C 186.035156 189.929688 185.667969 189.9375 185.304688 189.9375 " fill-opacity="1" fill-rule="nonzero"/><path fill="#4e8ef7" d="M 202.550781 145.707031 C 202.242188 145.707031 201.953125 145.523438 201.824219 145.222656 C 201.308594 144.003906 201.152344 142.402344 201.359375 140.464844 C 201.523438 138.90625 201.933594 137.273438 202.578125 135.609375 L 205.03125 129.277344 C 205.1875 128.871094 205.644531 128.667969 206.054688 128.824219 C 206.460938 128.984375 206.660156 129.441406 206.503906 129.847656 L 204.046875 136.179688 C 203.457031 137.714844 203.078125 139.210938 202.925781 140.632812 C 202.753906 142.277344 202.875 143.652344 203.277344 144.609375 C 203.449219 145.011719 203.257812 145.472656 202.859375 145.644531 C 202.757812 145.683594 202.652344 145.707031 202.550781 145.707031 " fill-opacity="1" fill-rule="nonzero"/></svg>